# xmcd CD database file
#
# Track frame offsets:
#	150
#	19966
#	38429
#
# Disc length: 775 seconds
#
# Revision: 4
# Processed by: cddbd v1.5.2PL0 Copyright (c) Steve Scherf et al.
# Submitted via: CDex 1.70beta2
#
DISCID=18030503
DTITLE=ナオト・インティライミ - タカラモノ ～この声がなくなるまで～
DYEAR=2010
DGENRE=J-Pop
TTITLE0=タカラモノ ～この声がなくなるまで～
TTITLE1=この手の中に
TTITLE2=タカラモノ ～この声がなくなるまで～ (KARAOKE)
EXTD=YEAR: 2010
EXTT0=
EXTT1=
EXTT2=
PLAYORDER=
